<svg viewBox="0 0 240 171" xmlns="http://www.w3.org/2000/svg" font-family="sans-serif">
  <text x="12" y="18" font-size="12" fill="#2980b9">1 × 12 = 12</text>
  <rect x="12" y="25" width="12" height="12" rx="2" fill="#d6eaf8" stroke="#2980b9" stroke-width="1.5"/>
  <rect x="27" y="25" width="12" height="12" rx="2" fill="#d6eaf8" stroke="#2980b9" stroke-width="1.5"/>
  <rect x="42" y="25" width="12" height="12" rx="2" fill="#d6eaf8" stroke="#2980b9" stroke-width="1.5"/>
  <rect x="57" y="25" width="12" height="12" rx="2" fill="#d6eaf8" stroke="#2980b9" stroke-width="1.5"/>
  <rect x="72" y="25" width="12" height="12" rx="2" fill="#d6eaf8" stroke="#2980b9" stroke-width="1.5"/>
  <rect x="87" y="25" width="12" height="12" rx="2" fill="#d6eaf8" stroke="#2980b9" stroke-width="1.5"/>
  <rect x="102" y="25" width="12" height="12" rx="2" fill="#d6eaf8" stroke="#2980b9" stroke-width="1.5"/>
  <rect x="117" y="25" width="12" height="12" rx="2" fill="#d6eaf8" stroke="#2980b9" stroke-width="1.5"/>
  <rect x="132" y="25" width="12" height="12" rx="2" fill="#d6eaf8" stroke="#2980b9" stroke-width="1.5"/>
  <rect x="147" y="25" width="12" height="12" rx="2" fill="#d6eaf8" stroke="#2980b9" stroke-width="1.5"/>
  <rect x="162" y="25" width="12" height="12" rx="2" fill="#d6eaf8" stroke="#2980b9" stroke-width="1.5"/>
  <rect x="177" y="25" width="12" height="12" rx="2" fill="#d6eaf8" stroke="#2980b9" stroke-width="1.5"/>
  <text x="12" y="54" font-size="12" fill="#2980b9">2 × 6 = 12</text>
  <rect x="12" y="61" width="12" height="12" rx="2" fill="#d6eaf8" stroke="#2980b9" stroke-width="1.5"/>
  <rect x="27" y="61" width="12" height="12" rx="2" fill="#d6eaf8" stroke="#2980b9" stroke-width="1.5"/>
  <rect x="42" y="61" width="12" height="12" rx="2" fill="#d6eaf8" stroke="#2980b9" stroke-width="1.5"/>
  <rect x="57" y="61" width="12" height="12" rx="2" fill="#d6eaf8" stroke="#2980b9" stroke-width="1.5"/>
  <rect x="72" y="61" width="12" height="12" rx="2" fill="#d6eaf8" stroke="#2980b9" stroke-width="1.5"/>
  <rect x="87" y="61" width="12" height="12" rx="2" fill="#d6eaf8" stroke="#2980b9" stroke-width="1.5"/>
  <rect x="12" y="76" width="12" height="12" rx="2" fill="#d6eaf8" stroke="#2980b9" stroke-width="1.5"/>
  <rect x="27" y="76" width="12" height="12" rx="2" fill="#d6eaf8" stroke="#2980b9" stroke-width="1.5"/>
  <rect x="42" y="76" width="12" height="12" rx="2" fill="#d6eaf8" stroke="#2980b9" stroke-width="1.5"/>
  <rect x="57" y="76" width="12" height="12" rx="2" fill="#d6eaf8" stroke="#2980b9" stroke-width="1.5"/>
  <rect x="72" y="76" width="12" height="12" rx="2" fill="#d6eaf8" stroke="#2980b9" stroke-width="1.5"/>
  <rect x="87" y="76" width="12" height="12" rx="2" fill="#d6eaf8" stroke="#2980b9" stroke-width="1.5"/>
  <text x="12" y="105" font-size="12" fill="#2980b9">3 × 4 = 12</text>
  <rect x="12" y="112" width="12" height="12" rx="2" fill="#d6eaf8" stroke="#2980b9" stroke-width="1.5"/>
  <rect x="27" y="112" width="12" height="12" rx="2" fill="#d6eaf8" stroke="#2980b9" stroke-width="1.5"/>
  <rect x="42" y="112" width="12" height="12" rx="2" fill="#d6eaf8" stroke="#2980b9" stroke-width="1.5"/>
  <rect x="57" y="112" width="12" height="12" rx="2" fill="#d6eaf8" stroke="#2980b9" stroke-width="1.5"/>
  <rect x="12" y="127" width="12" height="12" rx="2" fill="#d6eaf8" stroke="#2980b9" stroke-width="1.5"/>
  <rect x="27" y="127" width="12" height="12" rx="2" fill="#d6eaf8" stroke="#2980b9" stroke-width="1.5"/>
  <rect x="42" y="127" width="12" height="12" rx="2" fill="#d6eaf8" stroke="#2980b9" stroke-width="1.5"/>
  <rect x="57" y="127" width="12" height="12" rx="2" fill="#d6eaf8" stroke="#2980b9" stroke-width="1.5"/>
  <rect x="12" y="142" width="12" height="12" rx="2" fill="#d6eaf8" stroke="#2980b9" stroke-width="1.5"/>
  <rect x="27" y="142" width="12" height="12" rx="2" fill="#d6eaf8" stroke="#2980b9" stroke-width="1.5"/>
  <rect x="42" y="142" width="12" height="12" rx="2" fill="#d6eaf8" stroke="#2980b9" stroke-width="1.5"/>
  <rect x="57" y="142" width="12" height="12" rx="2" fill="#d6eaf8" stroke="#2980b9" stroke-width="1.5"/>
</svg>
