<svg viewBox="0 0 320 60" xmlns="http://www.w3.org/2000/svg" font-family="sans-serif">
  <line x1="14" y1="30" x2="306" y2="30" stroke="#333" stroke-width="2"/>
  <line x1="20.0" y1="25" x2="20.0" y2="35" stroke="#333"/>
  <text x="20.0" y="50" font-size="10" text-anchor="middle">-6</text>
  <line x1="43.33" y1="25" x2="43.33" y2="35" stroke="#333"/>
  <text x="43.33" y="50" font-size="10" text-anchor="middle">-5</text>
  <line x1="66.67" y1="25" x2="66.67" y2="35" stroke="#333"/>
  <text x="66.67" y="50" font-size="10" text-anchor="middle">-4</text>
  <line x1="90.0" y1="25" x2="90.0" y2="35" stroke="#333"/>
  <text x="90.0" y="50" font-size="10" text-anchor="middle">-3</text>
  <line x1="113.33" y1="25" x2="113.33" y2="35" stroke="#333"/>
  <text x="113.33" y="50" font-size="10" text-anchor="middle">-2</text>
  <line x1="136.67" y1="25" x2="136.67" y2="35" stroke="#333"/>
  <text x="136.67" y="50" font-size="10" text-anchor="middle">-1</text>
  <line x1="160.0" y1="25" x2="160.0" y2="35" stroke="#333"/>
  <text x="160.0" y="50" font-size="10" text-anchor="middle">0</text>
  <line x1="183.33" y1="25" x2="183.33" y2="35" stroke="#333"/>
  <text x="183.33" y="50" font-size="10" text-anchor="middle">1</text>
  <line x1="206.67" y1="25" x2="206.67" y2="35" stroke="#333"/>
  <text x="206.67" y="50" font-size="10" text-anchor="middle">2</text>
  <line x1="230.0" y1="25" x2="230.0" y2="35" stroke="#333"/>
  <text x="230.0" y="50" font-size="10" text-anchor="middle">3</text>
  <line x1="253.33" y1="25" x2="253.33" y2="35" stroke="#333"/>
  <text x="253.33" y="50" font-size="10" text-anchor="middle">4</text>
  <line x1="276.67" y1="25" x2="276.67" y2="35" stroke="#333"/>
  <text x="276.67" y="50" font-size="10" text-anchor="middle">5</text>
  <line x1="300.0" y1="25" x2="300.0" y2="35" stroke="#333"/>
  <text x="300.0" y="50" font-size="10" text-anchor="middle">6</text>
  <circle cx="43.33" cy="30" r="5" fill="#c0392b" stroke="#c0392b" stroke-width="2"/>
  <text x="43.33" y="18" font-size="10" text-anchor="middle" fill="#c0392b">-5</text>
  <circle cx="113.33" cy="30" r="5" fill="#c0392b" stroke="#c0392b" stroke-width="2"/>
  <text x="113.33" y="18" font-size="10" text-anchor="middle" fill="#c0392b">-2</text>
</svg>
