<svg viewBox="0 0 320 60" xmlns="http://www.w3.org/2000/svg" font-family="sans-serif">
  <line x1="14" y1="30" x2="306" y2="30" stroke="#333" stroke-width="2"/>
  <line x1="20.0" y1="25" x2="20.0" y2="35" stroke="#333"/>
  <text x="20.0" y="50" font-size="10" text-anchor="middle">-5</text>
  <line x1="48.0" y1="25" x2="48.0" y2="35" stroke="#333"/>
  <text x="48.0" y="50" font-size="10" text-anchor="middle">-4</text>
  <line x1="76.0" y1="25" x2="76.0" y2="35" stroke="#333"/>
  <text x="76.0" y="50" font-size="10" text-anchor="middle">-3</text>
  <line x1="104.0" y1="25" x2="104.0" y2="35" stroke="#333"/>
  <text x="104.0" y="50" font-size="10" text-anchor="middle">-2</text>
  <line x1="132.0" y1="25" x2="132.0" y2="35" stroke="#333"/>
  <text x="132.0" y="50" font-size="10" text-anchor="middle">-1</text>
  <line x1="160.0" y1="25" x2="160.0" y2="35" stroke="#333"/>
  <text x="160.0" y="50" font-size="10" text-anchor="middle">0</text>
  <line x1="188.0" y1="25" x2="188.0" y2="35" stroke="#333"/>
  <text x="188.0" y="50" font-size="10" text-anchor="middle">1</text>
  <line x1="216.0" y1="25" x2="216.0" y2="35" stroke="#333"/>
  <text x="216.0" y="50" font-size="10" text-anchor="middle">2</text>
  <line x1="244.0" y1="25" x2="244.0" y2="35" stroke="#333"/>
  <text x="244.0" y="50" font-size="10" text-anchor="middle">3</text>
  <line x1="272.0" y1="25" x2="272.0" y2="35" stroke="#333"/>
  <text x="272.0" y="50" font-size="10" text-anchor="middle">4</text>
  <line x1="300.0" y1="25" x2="300.0" y2="35" stroke="#333"/>
  <text x="300.0" y="50" font-size="10" text-anchor="middle">5</text>
  <circle cx="76.0" cy="30" r="5" fill="#c0392b" stroke="#c0392b" stroke-width="2"/>
  <text x="76.0" y="18" font-size="10" text-anchor="middle" fill="#c0392b">-3</text>
  <circle cx="244.0" cy="30" r="5" fill="#c0392b" stroke="#c0392b" stroke-width="2"/>
  <text x="244.0" y="18" font-size="10" text-anchor="middle" fill="#c0392b">3</text>
</svg>
