<svg viewBox="0 0 240 240" xmlns="http://www.w3.org/2000/svg" font-family="sans-serif">
  <line x1="18.0" y1="18.0" x2="18.0" y2="222.0" stroke="#e8e8e8" stroke-width="1"/>
  <line x1="40.67" y1="18.0" x2="40.67" y2="222.0" stroke="#e8e8e8" stroke-width="1"/>
  <line x1="63.33" y1="18.0" x2="63.33" y2="222.0" stroke="#e8e8e8" stroke-width="1"/>
  <line x1="86.0" y1="18.0" x2="86.0" y2="222.0" stroke="#e8e8e8" stroke-width="1"/>
  <line x1="131.33" y1="18.0" x2="131.33" y2="222.0" stroke="#e8e8e8" stroke-width="1"/>
  <line x1="154.0" y1="18.0" x2="154.0" y2="222.0" stroke="#e8e8e8" stroke-width="1"/>
  <line x1="176.67" y1="18.0" x2="176.67" y2="222.0" stroke="#e8e8e8" stroke-width="1"/>
  <line x1="199.33" y1="18.0" x2="199.33" y2="222.0" stroke="#e8e8e8" stroke-width="1"/>
  <line x1="222.0" y1="18.0" x2="222.0" y2="222.0" stroke="#e8e8e8" stroke-width="1"/>
  <line x1="18.0" y1="222.0" x2="222.0" y2="222.0" stroke="#e8e8e8" stroke-width="1"/>
  <line x1="18.0" y1="208.4" x2="222.0" y2="208.4" stroke="#e8e8e8" stroke-width="1"/>
  <line x1="18.0" y1="194.8" x2="222.0" y2="194.8" stroke="#e8e8e8" stroke-width="1"/>
  <line x1="18.0" y1="181.2" x2="222.0" y2="181.2" stroke="#e8e8e8" stroke-width="1"/>
  <line x1="18.0" y1="167.6" x2="222.0" y2="167.6" stroke="#e8e8e8" stroke-width="1"/>
  <line x1="18.0" y1="154.0" x2="222.0" y2="154.0" stroke="#e8e8e8" stroke-width="1"/>
  <line x1="18.0" y1="140.4" x2="222.0" y2="140.4" stroke="#e8e8e8" stroke-width="1"/>
  <line x1="18.0" y1="113.2" x2="222.0" y2="113.2" stroke="#e8e8e8" stroke-width="1"/>
  <line x1="18.0" y1="99.6" x2="222.0" y2="99.6" stroke="#e8e8e8" stroke-width="1"/>
  <line x1="18.0" y1="86.0" x2="222.0" y2="86.0" stroke="#e8e8e8" stroke-width="1"/>
  <line x1="18.0" y1="72.4" x2="222.0" y2="72.4" stroke="#e8e8e8" stroke-width="1"/>
  <line x1="18.0" y1="58.8" x2="222.0" y2="58.8" stroke="#e8e8e8" stroke-width="1"/>
  <line x1="18.0" y1="45.2" x2="222.0" y2="45.2" stroke="#e8e8e8" stroke-width="1"/>
  <line x1="18.0" y1="31.6" x2="222.0" y2="31.6" stroke="#e8e8e8" stroke-width="1"/>
  <line x1="18.0" y1="18.0" x2="222.0" y2="18.0" stroke="#e8e8e8" stroke-width="1"/>
  <line x1="18.0" y1="126.8" x2="222.0" y2="126.8" stroke="#888"/>
  <text x="216.0" y="122.8" font-size="10" fill="#888">x</text>
  <line x1="108.67" y1="18.0" x2="108.67" y2="222.0" stroke="#888"/>
  <text x="112.67" y="26.0" font-size="10" fill="#888">y</text>
  <polyline fill="none" stroke="#8e44ad" stroke-width="2.5" points="33.3,12.82 35.85,24.36 38.4,35.54 40.95,46.39 43.5,56.89 46.05,67.04 48.6,76.85 51.15,86.32 53.7,95.44 56.25,104.22 58.8,112.66 61.35,120.75 63.9,128.49 66.45,135.89 69.0,142.95 71.55,149.66 74.1,156.03 76.65,162.06 79.2,167.74 81.75,173.07 84.3,178.06 86.85,182.71 89.4,187.01 91.95,190.97 94.5,194.59 97.05,197.86 99.6,200.78 102.15,203.37 104.7,205.6 107.25,207.5 109.8,209.05 112.35,210.25 114.9,211.11 117.45,211.63 120.0,211.8 122.55,211.63 125.1,211.11 127.65,210.25 130.2,209.05 132.75,207.5 135.3,205.6 137.85,203.37 140.4,200.78 142.95,197.86 145.5,194.59 148.05,190.97 150.6,187.01 153.15,182.71 155.7,178.06 158.25,173.07 160.8,167.74 163.35,162.06 165.9,156.03 168.45,149.66 171.0,142.95 173.55,135.89 176.1,128.49 178.65,120.75 181.2,112.66 183.75,104.22 186.3,95.44 188.85,86.32 191.4,76.85 193.95,67.04 196.5,56.89 199.05,46.39 201.6,35.54 204.15,24.36 206.7,12.82"/>
  <circle cx="63.33" cy="126.8" r="3.5" fill="#c0392b"/>
  <text x="68.33" y="120.8" font-size="10" fill="#c0392b">(-2, 0)</text>
  <circle cx="176.67" cy="126.8" r="3.5" fill="#c0392b"/>
  <text x="181.67" y="120.8" font-size="10" fill="#c0392b">(3, 0)</text>
  <circle cx="120.0" cy="211.8" r="3.5" fill="#c0392b"/>
  <text x="125.0" y="205.8" font-size="10" fill="#c0392b">vertex</text>
</svg>
