<svg viewBox="0 0 240 240" xmlns="http://www.w3.org/2000/svg" font-family="sans-serif">
  <line x1="18.0" y1="18.0" x2="18.0" y2="222.0" stroke="#e8e8e8" stroke-width="1"/>
  <line x1="86.0" y1="18.0" x2="86.0" y2="222.0" stroke="#e8e8e8" stroke-width="1"/>
  <line x1="120.0" y1="18.0" x2="120.0" y2="222.0" stroke="#e8e8e8" stroke-width="1"/>
  <line x1="154.0" y1="18.0" x2="154.0" y2="222.0" stroke="#e8e8e8" stroke-width="1"/>
  <line x1="188.0" y1="18.0" x2="188.0" y2="222.0" stroke="#e8e8e8" stroke-width="1"/>
  <line x1="222.0" y1="18.0" x2="222.0" y2="222.0" stroke="#e8e8e8" stroke-width="1"/>
  <line x1="18.0" y1="222.0" x2="222.0" y2="222.0" stroke="#e8e8e8" stroke-width="1"/>
  <line x1="18.0" y1="199.33" x2="222.0" y2="199.33" stroke="#e8e8e8" stroke-width="1"/>
  <line x1="18.0" y1="176.67" x2="222.0" y2="176.67" stroke="#e8e8e8" stroke-width="1"/>
  <line x1="18.0" y1="131.33" x2="222.0" y2="131.33" stroke="#e8e8e8" stroke-width="1"/>
  <line x1="18.0" y1="108.67" x2="222.0" y2="108.67" stroke="#e8e8e8" stroke-width="1"/>
  <line x1="18.0" y1="86.0" x2="222.0" y2="86.0" stroke="#e8e8e8" stroke-width="1"/>
  <line x1="18.0" y1="63.33" x2="222.0" y2="63.33" stroke="#e8e8e8" stroke-width="1"/>
  <line x1="18.0" y1="40.67" x2="222.0" y2="40.67" stroke="#e8e8e8" stroke-width="1"/>
  <line x1="18.0" y1="18.0" x2="222.0" y2="18.0" stroke="#e8e8e8" stroke-width="1"/>
  <line x1="18.0" y1="154.0" x2="222.0" y2="154.0" stroke="#888"/>
  <text x="216.0" y="150.0" font-size="10" fill="#888">x</text>
  <line x1="52.0" y1="18.0" x2="52.0" y2="222.0" stroke="#888"/>
  <text x="56.0" y="26.0" font-size="10" fill="#888">y</text>
  <polyline fill="none" stroke="#8e44ad" stroke-width="2.5" points="25.65,2.12 28.2,11.43 30.75,20.48 33.3,29.28 35.85,37.82 38.4,46.11 40.95,54.14 43.5,61.92 46.05,69.44 48.6,76.71 51.15,83.72 53.7,90.48 56.25,96.98 58.8,103.23 61.35,109.22 63.9,114.96 66.45,120.44 69.0,125.67 71.55,130.64 74.1,135.36 76.65,139.82 79.2,144.03 81.75,147.98 84.3,151.68 86.85,155.12 89.4,158.31 91.95,161.24 94.5,163.92 97.05,166.34 99.6,168.51 102.15,170.42 104.7,172.08 107.25,173.48 109.8,174.63 112.35,175.52 114.9,176.16 117.45,176.54 120.0,176.67 122.55,176.54 125.1,176.16 127.65,175.52 130.2,174.63 132.75,173.48 135.3,172.08 137.85,170.42 140.4,168.51 142.95,166.34 145.5,163.92 148.05,161.24 150.6,158.31 153.15,155.12 155.7,151.68 158.25,147.98 160.8,144.03 163.35,139.82 165.9,135.36 168.45,130.64 171.0,125.67 173.55,120.44 176.1,114.96 178.65,109.22 181.2,103.23 183.75,96.98 186.3,90.48 188.85,83.72 191.4,76.71 193.95,69.44 196.5,61.92 199.05,54.14 201.6,46.11 204.15,37.82 206.7,29.28 209.25,20.48 211.8,11.43 214.35,2.12"/>
  <circle cx="86.0" cy="154.0" r="3.5" fill="#c0392b"/>
  <text x="91.0" y="148.0" font-size="10" fill="#c0392b">(1, 0)</text>
  <circle cx="154.0" cy="154.0" r="3.5" fill="#c0392b"/>
  <text x="159.0" y="148.0" font-size="10" fill="#c0392b">(3, 0)</text>
  <circle cx="120.0" cy="176.67" r="3.5" fill="#c0392b"/>
  <text x="125.0" y="170.67" font-size="10" fill="#c0392b">vertex</text>
</svg>
