<svg viewBox="0 0 240 240" xmlns="http://www.w3.org/2000/svg" font-family="sans-serif">
  <line x1="18.0" y1="129.27" x2="222.0" y2="129.27" stroke="#888"/>
  <text x="216.0" y="125.27000000000001" font-size="10" fill="#888">x</text>
  <line x1="120.0" y1="18.0" x2="120.0" y2="222.0" stroke="#888"/>
  <text x="124.0" y="26.0" font-size="10" fill="#888">y</text>
  <polyline fill="none" stroke="#8e44ad" stroke-width="2.5" points="18.0,36.55 20.55,44.79 23.1,52.82 25.65,60.64 28.2,68.26 30.75,75.66 33.3,82.86 35.85,89.85 38.4,96.63 40.95,103.2 43.5,109.57 46.05,115.72 48.6,121.67 51.15,127.41 53.7,132.94 56.25,138.26 58.8,143.37 61.35,148.27 63.9,152.96 66.45,157.45 69.0,161.73 71.55,165.8 74.1,169.66 76.65,173.31 79.2,176.75 81.75,179.98 84.3,183.01 86.85,185.82 89.4,188.43 91.95,190.83 94.5,193.02 97.05,195.0 99.6,196.78 102.15,198.34 104.7,199.7 107.25,200.85 109.8,201.79 112.35,202.52 114.9,203.04 117.45,203.35 120.0,203.45 122.55,203.35 125.1,203.04 127.65,202.52 130.2,201.79 132.75,200.85 135.3,199.7 137.85,198.34 140.4,196.78 142.95,195.0 145.5,193.02 148.05,190.83 150.6,188.43 153.15,185.82 155.7,183.01 158.25,179.98 160.8,176.75 163.35,173.31 165.9,169.66 168.45,165.8 171.0,161.73 173.55,157.45 176.1,152.96 178.65,148.27 181.2,143.37 183.75,138.26 186.3,132.94 188.85,127.41 191.4,121.67 193.95,115.72 196.5,109.57 199.05,103.2 201.6,96.63 204.15,89.85 206.7,82.86 209.25,75.66 211.8,68.26 214.35,60.64 216.9,52.82 219.45,44.79 222.0,36.55"/>
  <circle cx="52.0" cy="129.27" r="3.5" fill="#c0392b"/>
  <text x="57.0" y="123.27000000000001" font-size="10" fill="#c0392b">(-2,0)</text>
  <circle cx="188.0" cy="129.27" r="3.5" fill="#c0392b"/>
  <text x="193.0" y="123.27000000000001" font-size="10" fill="#c0392b">(2,0)</text>
  <circle cx="120.0" cy="203.45" r="3.5" fill="#c0392b"/>
  <text x="125.0" y="197.45" font-size="10" fill="#c0392b">vertex (0,-4)</text>
</svg>
