<svg viewBox="0 0 240 240" xmlns="http://www.w3.org/2000/svg" font-family="sans-serif">
  <line x1="18.0" y1="18.0" x2="18.0" y2="222.0" stroke="#e8e8e8" stroke-width="1"/>
  <line x1="69.0" y1="18.0" x2="69.0" y2="222.0" stroke="#e8e8e8" stroke-width="1"/>
  <line x1="94.5" y1="18.0" x2="94.5" y2="222.0" stroke="#e8e8e8" stroke-width="1"/>
  <line x1="120.0" y1="18.0" x2="120.0" y2="222.0" stroke="#e8e8e8" stroke-width="1"/>
  <line x1="145.5" y1="18.0" x2="145.5" y2="222.0" stroke="#e8e8e8" stroke-width="1"/>
  <line x1="171.0" y1="18.0" x2="171.0" y2="222.0" stroke="#e8e8e8" stroke-width="1"/>
  <line x1="196.5" y1="18.0" x2="196.5" y2="222.0" stroke="#e8e8e8" stroke-width="1"/>
  <line x1="222.0" y1="18.0" x2="222.0" y2="222.0" stroke="#e8e8e8" stroke-width="1"/>
  <line x1="18.0" y1="222.0" x2="222.0" y2="222.0" stroke="#e8e8e8" stroke-width="1"/>
  <line x1="18.0" y1="171.0" x2="222.0" y2="171.0" stroke="#e8e8e8" stroke-width="1"/>
  <line x1="18.0" y1="145.5" x2="222.0" y2="145.5" stroke="#e8e8e8" stroke-width="1"/>
  <line x1="18.0" y1="120.0" x2="222.0" y2="120.0" stroke="#e8e8e8" stroke-width="1"/>
  <line x1="18.0" y1="94.5" x2="222.0" y2="94.5" stroke="#e8e8e8" stroke-width="1"/>
  <line x1="18.0" y1="69.0" x2="222.0" y2="69.0" stroke="#e8e8e8" stroke-width="1"/>
  <line x1="18.0" y1="43.5" x2="222.0" y2="43.5" stroke="#e8e8e8" stroke-width="1"/>
  <line x1="18.0" y1="18.0" x2="222.0" y2="18.0" stroke="#e8e8e8" stroke-width="1"/>
  <line x1="18.0" y1="196.5" x2="222.0" y2="196.5" stroke="#888"/>
  <text x="216.0" y="192.5" font-size="10" fill="#888">x</text>
  <line x1="43.5" y1="18.0" x2="43.5" y2="222.0" stroke="#888"/>
  <text x="47.5" y="26.0" font-size="10" fill="#888">y</text>
  <line x1="43.5" y1="145.5" x2="69.0" y2="145.5" stroke="#c0392b" stroke-width="1" stroke-dasharray="3 3"/>
  <line x1="69.0" y1="196.5" x2="69.0" y2="145.5" stroke="#c0392b" stroke-width="1" stroke-dasharray="3 3"/>
  <circle cx="69.0" cy="145.5" r="3.5" fill="#c0392b"/>
  <text x="74.0" y="139.5" font-size="10" fill="#c0392b">(1, 2)</text>
  <line x1="43.5" y1="94.5" x2="94.5" y2="94.5" stroke="#c0392b" stroke-width="1" stroke-dasharray="3 3"/>
  <line x1="94.5" y1="196.5" x2="94.5" y2="94.5" stroke="#c0392b" stroke-width="1" stroke-dasharray="3 3"/>
  <circle cx="94.5" cy="94.5" r="3.5" fill="#c0392b"/>
  <text x="99.5" y="88.5" font-size="10" fill="#c0392b">(2, 4)</text>
  <line x1="43.5" y1="43.5" x2="120.0" y2="43.5" stroke="#c0392b" stroke-width="1" stroke-dasharray="3 3"/>
  <line x1="120.0" y1="196.5" x2="120.0" y2="43.5" stroke="#c0392b" stroke-width="1" stroke-dasharray="3 3"/>
  <circle cx="120.0" cy="43.5" r="3.5" fill="#c0392b"/>
  <text x="125.0" y="37.5" font-size="10" fill="#c0392b">(3, 6)</text>
</svg>
