<svg viewBox="0 0 240 240" xmlns="http://www.w3.org/2000/svg" font-family="sans-serif">
  <line x1="18.0" y1="18.0" x2="18.0" y2="222.0" stroke="#e8e8e8" stroke-width="1"/>
  <line x1="38.4" y1="18.0" x2="38.4" y2="222.0" stroke="#e8e8e8" stroke-width="1"/>
  <line x1="58.8" y1="18.0" x2="58.8" y2="222.0" stroke="#e8e8e8" stroke-width="1"/>
  <line x1="79.2" y1="18.0" x2="79.2" y2="222.0" stroke="#e8e8e8" stroke-width="1"/>
  <line x1="99.6" y1="18.0" x2="99.6" y2="222.0" stroke="#e8e8e8" stroke-width="1"/>
  <line x1="140.4" y1="18.0" x2="140.4" y2="222.0" stroke="#e8e8e8" stroke-width="1"/>
  <line x1="160.8" y1="18.0" x2="160.8" y2="222.0" stroke="#e8e8e8" stroke-width="1"/>
  <line x1="181.2" y1="18.0" x2="181.2" y2="222.0" stroke="#e8e8e8" stroke-width="1"/>
  <line x1="201.6" y1="18.0" x2="201.6" y2="222.0" stroke="#e8e8e8" stroke-width="1"/>
  <line x1="222.0" y1="18.0" x2="222.0" y2="222.0" stroke="#e8e8e8" stroke-width="1"/>
  <line x1="18.0" y1="222.0" x2="222.0" y2="222.0" stroke="#e8e8e8" stroke-width="1"/>
  <line x1="18.0" y1="201.6" x2="222.0" y2="201.6" stroke="#e8e8e8" stroke-width="1"/>
  <line x1="18.0" y1="181.2" x2="222.0" y2="181.2" stroke="#e8e8e8" stroke-width="1"/>
  <line x1="18.0" y1="160.8" x2="222.0" y2="160.8" stroke="#e8e8e8" stroke-width="1"/>
  <line x1="18.0" y1="140.4" x2="222.0" y2="140.4" stroke="#e8e8e8" stroke-width="1"/>
  <line x1="18.0" y1="99.6" x2="222.0" y2="99.6" stroke="#e8e8e8" stroke-width="1"/>
  <line x1="18.0" y1="79.2" x2="222.0" y2="79.2" stroke="#e8e8e8" stroke-width="1"/>
  <line x1="18.0" y1="58.8" x2="222.0" y2="58.8" stroke="#e8e8e8" stroke-width="1"/>
  <line x1="18.0" y1="38.4" x2="222.0" y2="38.4" stroke="#e8e8e8" stroke-width="1"/>
  <line x1="18.0" y1="18.0" x2="222.0" y2="18.0" stroke="#e8e8e8" stroke-width="1"/>
  <line x1="18.0" y1="120.0" x2="222.0" y2="120.0" stroke="#888"/>
  <text x="216.0" y="116.0" font-size="10" fill="#888">x</text>
  <line x1="120.0" y1="18.0" x2="120.0" y2="222.0" stroke="#888"/>
  <text x="124.0" y="26.0" font-size="10" fill="#888">y</text>
  <line x1="120.0" y1="58.8" x2="99.6" y2="58.8" stroke="#c0392b" stroke-width="1" stroke-dasharray="3 3"/>
  <line x1="99.6" y1="120.0" x2="99.6" y2="58.8" stroke="#c0392b" stroke-width="1" stroke-dasharray="3 3"/>
  <circle cx="99.6" cy="58.8" r="3.5" fill="#c0392b"/>
  <text x="104.6" y="52.8" font-size="10" fill="#c0392b">(-1, 3)</text>
</svg>
