<svg viewBox="0 0 240 240" xmlns="http://www.w3.org/2000/svg" font-family="sans-serif">
  <line x1="18.0" y1="18.0" x2="18.0" y2="222.0" stroke="#e8e8e8" stroke-width="1"/>
  <line x1="52.0" y1="18.0" x2="52.0" y2="222.0" stroke="#e8e8e8" stroke-width="1"/>
  <line x1="86.0" y1="18.0" x2="86.0" y2="222.0" stroke="#e8e8e8" stroke-width="1"/>
  <line x1="154.0" y1="18.0" x2="154.0" y2="222.0" stroke="#e8e8e8" stroke-width="1"/>
  <line x1="188.0" y1="18.0" x2="188.0" y2="222.0" stroke="#e8e8e8" stroke-width="1"/>
  <line x1="222.0" y1="18.0" x2="222.0" y2="222.0" stroke="#e8e8e8" stroke-width="1"/>
  <line x1="18.0" y1="222.0" x2="222.0" y2="222.0" stroke="#e8e8e8" stroke-width="1"/>
  <line x1="18.0" y1="181.2" x2="222.0" y2="181.2" stroke="#e8e8e8" stroke-width="1"/>
  <line x1="18.0" y1="160.8" x2="222.0" y2="160.8" stroke="#e8e8e8" stroke-width="1"/>
  <line x1="18.0" y1="140.4" x2="222.0" y2="140.4" stroke="#e8e8e8" stroke-width="1"/>
  <line x1="18.0" y1="120.0" x2="222.0" y2="120.0" stroke="#e8e8e8" stroke-width="1"/>
  <line x1="18.0" y1="99.6" x2="222.0" y2="99.6" stroke="#e8e8e8" stroke-width="1"/>
  <line x1="18.0" y1="79.2" x2="222.0" y2="79.2" stroke="#e8e8e8" stroke-width="1"/>
  <line x1="18.0" y1="58.8" x2="222.0" y2="58.8" stroke="#e8e8e8" stroke-width="1"/>
  <line x1="18.0" y1="38.4" x2="222.0" y2="38.4" stroke="#e8e8e8" stroke-width="1"/>
  <line x1="18.0" y1="18.0" x2="222.0" y2="18.0" stroke="#e8e8e8" stroke-width="1"/>
  <line x1="18.0" y1="201.6" x2="222.0" y2="201.6" stroke="#888"/>
  <text x="216.0" y="197.6" font-size="10" fill="#888">x</text>
  <line x1="120.0" y1="18.0" x2="120.0" y2="222.0" stroke="#888"/>
  <text x="124.0" y="26.0" font-size="10" fill="#888">y</text>
  <polyline fill="none" stroke="#2980b9" stroke-width="2.5" points="18.0,18.0 20.55,27.07 23.1,35.9 25.65,44.51 28.2,52.88 30.75,61.03 33.3,68.95 35.85,76.64 38.4,84.1 40.95,91.33 43.5,98.33 46.05,105.1 48.6,111.64 51.15,117.95 53.7,124.03 56.25,129.88 58.8,135.5 61.35,140.9 63.9,146.06 66.45,151.0 69.0,155.7 71.55,160.18 74.1,164.42 76.65,168.44 79.2,172.22 81.75,175.78 84.3,179.11 86.85,182.21 89.4,185.08 91.95,187.72 94.5,190.13 97.05,192.31 99.6,194.26 102.15,195.98 104.7,197.47 107.25,198.73 109.8,199.76 112.35,200.57 114.9,201.14 117.45,201.49 120.0,201.6 122.55,201.49 125.1,201.14 127.65,200.57 130.2,199.76 132.75,198.73 135.3,197.47 137.85,195.98 140.4,194.26 142.95,192.31 145.5,190.12 148.05,187.72 150.6,185.08 153.15,182.21 155.7,179.11 158.25,175.78 160.8,172.22 163.35,168.44 165.9,164.42 168.45,160.18 171.0,155.7 173.55,151.0 176.1,146.06 178.65,140.9 181.2,135.5 183.75,129.88 186.3,124.03 188.85,117.95 191.4,111.64 193.95,105.1 196.5,98.32 199.05,91.33 201.6,84.1 204.15,76.64 206.7,68.95 209.25,61.03 211.8,52.88 214.35,44.51 216.9,35.9 219.45,27.07 222.0,18.0"/>
  <line x1="154.0" y1="18.0" x2="154.0" y2="222.0" stroke="#c0392b" stroke-width="1.5" stroke-dasharray="5 3"/>
  <circle cx="154.0" cy="181.2" r="3.5" fill="#c0392b"/>
  <text x="159.0" y="175.2" font-size="10" fill="#c0392b">(1, 1)</text>
</svg>
