<svg viewBox="0 0 240 240" xmlns="http://www.w3.org/2000/svg" font-family="sans-serif">
  <line x1="18.0" y1="18.0" x2="18.0" y2="222.0" stroke="#e8e8e8" stroke-width="1"/>
  <line x1="52.0" y1="18.0" x2="52.0" y2="222.0" stroke="#e8e8e8" stroke-width="1"/>
  <line x1="86.0" y1="18.0" x2="86.0" y2="222.0" stroke="#e8e8e8" stroke-width="1"/>
  <line x1="154.0" y1="18.0" x2="154.0" y2="222.0" stroke="#e8e8e8" stroke-width="1"/>
  <line x1="188.0" y1="18.0" x2="188.0" y2="222.0" stroke="#e8e8e8" stroke-width="1"/>
  <line x1="222.0" y1="18.0" x2="222.0" y2="222.0" stroke="#e8e8e8" stroke-width="1"/>
  <line x1="18.0" y1="222.0" x2="222.0" y2="222.0" stroke="#e8e8e8" stroke-width="1"/>
  <line x1="18.0" y1="205.0" x2="222.0" y2="205.0" stroke="#e8e8e8" stroke-width="1"/>
  <line x1="18.0" y1="188.0" x2="222.0" y2="188.0" stroke="#e8e8e8" stroke-width="1"/>
  <line x1="18.0" y1="171.0" x2="222.0" y2="171.0" stroke="#e8e8e8" stroke-width="1"/>
  <line x1="18.0" y1="154.0" x2="222.0" y2="154.0" stroke="#e8e8e8" stroke-width="1"/>
  <line x1="18.0" y1="120.0" x2="222.0" y2="120.0" stroke="#e8e8e8" stroke-width="1"/>
  <line x1="18.0" y1="103.0" x2="222.0" y2="103.0" stroke="#e8e8e8" stroke-width="1"/>
  <line x1="18.0" y1="86.0" x2="222.0" y2="86.0" stroke="#e8e8e8" stroke-width="1"/>
  <line x1="18.0" y1="69.0" x2="222.0" y2="69.0" stroke="#e8e8e8" stroke-width="1"/>
  <line x1="18.0" y1="52.0" x2="222.0" y2="52.0" stroke="#e8e8e8" stroke-width="1"/>
  <line x1="18.0" y1="35.0" x2="222.0" y2="35.0" stroke="#e8e8e8" stroke-width="1"/>
  <line x1="18.0" y1="18.0" x2="222.0" y2="18.0" stroke="#e8e8e8" stroke-width="1"/>
  <line x1="18.0" y1="137.0" x2="222.0" y2="137.0" stroke="#888"/>
  <text x="216.0" y="133.0" font-size="10" fill="#888">x</text>
  <line x1="120.0" y1="18.0" x2="120.0" y2="222.0" stroke="#888"/>
  <text x="124.0" y="26.0" font-size="10" fill="#888">y</text>
  <line x1="18.0" y1="222.0" x2="222.0" y2="18.0" stroke="#2980b9" stroke-width="2.5"/>
  <line x1="154.0" y1="18.0" x2="154.0" y2="222.0" stroke="#c0392b" stroke-width="1.5" stroke-dasharray="5 3"/>
  <circle cx="154.0" cy="86.0" r="3.5" fill="#c0392b"/>
</svg>
