<svg viewBox="0 0 240 240" xmlns="http://www.w3.org/2000/svg" font-family="sans-serif">
  <line x1="18.0" y1="18.0" x2="18.0" y2="222.0" stroke="#e8e8e8" stroke-width="1"/>
  <line x1="47.14" y1="18.0" x2="47.14" y2="222.0" stroke="#e8e8e8" stroke-width="1"/>
  <line x1="76.29" y1="18.0" x2="76.29" y2="222.0" stroke="#e8e8e8" stroke-width="1"/>
  <line x1="134.57" y1="18.0" x2="134.57" y2="222.0" stroke="#e8e8e8" stroke-width="1"/>
  <line x1="163.71" y1="18.0" x2="163.71" y2="222.0" stroke="#e8e8e8" stroke-width="1"/>
  <line x1="192.86" y1="18.0" x2="192.86" y2="222.0" stroke="#e8e8e8" stroke-width="1"/>
  <line x1="222.0" y1="18.0" x2="222.0" y2="222.0" stroke="#e8e8e8" stroke-width="1"/>
  <line x1="18.0" y1="222.0" x2="222.0" y2="222.0" stroke="#e8e8e8" stroke-width="1"/>
  <line x1="18.0" y1="207.43" x2="222.0" y2="207.43" stroke="#e8e8e8" stroke-width="1"/>
  <line x1="18.0" y1="192.86" x2="222.0" y2="192.86" stroke="#e8e8e8" stroke-width="1"/>
  <line x1="18.0" y1="178.29" x2="222.0" y2="178.29" stroke="#e8e8e8" stroke-width="1"/>
  <line x1="18.0" y1="163.71" x2="222.0" y2="163.71" stroke="#e8e8e8" stroke-width="1"/>
  <line x1="18.0" y1="149.14" x2="222.0" y2="149.14" stroke="#e8e8e8" stroke-width="1"/>
  <line x1="18.0" y1="134.57" x2="222.0" y2="134.57" stroke="#e8e8e8" stroke-width="1"/>
  <line x1="18.0" y1="105.43" x2="222.0" y2="105.43" stroke="#e8e8e8" stroke-width="1"/>
  <line x1="18.0" y1="90.86" x2="222.0" y2="90.86" stroke="#e8e8e8" stroke-width="1"/>
  <line x1="18.0" y1="76.29" x2="222.0" y2="76.29" stroke="#e8e8e8" stroke-width="1"/>
  <line x1="18.0" y1="61.71" x2="222.0" y2="61.71" stroke="#e8e8e8" stroke-width="1"/>
  <line x1="18.0" y1="47.14" x2="222.0" y2="47.14" stroke="#e8e8e8" stroke-width="1"/>
  <line x1="18.0" y1="32.57" x2="222.0" y2="32.57" stroke="#e8e8e8" stroke-width="1"/>
  <line x1="18.0" y1="18.0" x2="222.0" y2="18.0" stroke="#e8e8e8" stroke-width="1"/>
  <line x1="18.0" y1="120.0" x2="222.0" y2="120.0" stroke="#888"/>
  <text x="216.0" y="116.0" font-size="10" fill="#888">x</text>
  <line x1="105.43" y1="18.0" x2="105.43" y2="222.0" stroke="#888"/>
  <text x="109.43" y="26.0" font-size="10" fill="#888">y</text>
  <line x1="18.0" y1="222.0" x2="222.0" y2="18.0" stroke="#2980b9" stroke-width="2.5"/>
  <circle cx="105.43" cy="134.57" r="3.5" fill="#c0392b"/>
  <text x="110.43" y="128.57" font-size="10" fill="#c0392b">(0,-1)</text>
  <circle cx="192.86" cy="47.14" r="3.5" fill="#c0392b"/>
  <text x="197.86" y="41.14" font-size="10" fill="#c0392b">(3,5)</text>
  <text x="156.06" y="83.94" font-size="10" fill="#2980b9">y = 2x - 1</text>
</svg>
