<svg viewBox="0 0 240 240" xmlns="http://www.w3.org/2000/svg" font-family="sans-serif">
  <line x1="18.0" y1="18.0" x2="18.0" y2="222.0" stroke="#e8e8e8" stroke-width="1"/>
  <line x1="40.67" y1="18.0" x2="40.67" y2="222.0" stroke="#e8e8e8" stroke-width="1"/>
  <line x1="63.33" y1="18.0" x2="63.33" y2="222.0" stroke="#e8e8e8" stroke-width="1"/>
  <line x1="108.67" y1="18.0" x2="108.67" y2="222.0" stroke="#e8e8e8" stroke-width="1"/>
  <line x1="131.33" y1="18.0" x2="131.33" y2="222.0" stroke="#e8e8e8" stroke-width="1"/>
  <line x1="154.0" y1="18.0" x2="154.0" y2="222.0" stroke="#e8e8e8" stroke-width="1"/>
  <line x1="176.67" y1="18.0" x2="176.67" y2="222.0" stroke="#e8e8e8" stroke-width="1"/>
  <line x1="199.33" y1="18.0" x2="199.33" y2="222.0" stroke="#e8e8e8" stroke-width="1"/>
  <line x1="222.0" y1="18.0" x2="222.0" y2="222.0" stroke="#e8e8e8" stroke-width="1"/>
  <line x1="18.0" y1="222.0" x2="222.0" y2="222.0" stroke="#e8e8e8" stroke-width="1"/>
  <line x1="18.0" y1="196.5" x2="222.0" y2="196.5" stroke="#e8e8e8" stroke-width="1"/>
  <line x1="18.0" y1="145.5" x2="222.0" y2="145.5" stroke="#e8e8e8" stroke-width="1"/>
  <line x1="18.0" y1="120.0" x2="222.0" y2="120.0" stroke="#e8e8e8" stroke-width="1"/>
  <line x1="18.0" y1="94.5" x2="222.0" y2="94.5" stroke="#e8e8e8" stroke-width="1"/>
  <line x1="18.0" y1="69.0" x2="222.0" y2="69.0" stroke="#e8e8e8" stroke-width="1"/>
  <line x1="18.0" y1="43.5" x2="222.0" y2="43.5" stroke="#e8e8e8" stroke-width="1"/>
  <line x1="18.0" y1="18.0" x2="222.0" y2="18.0" stroke="#e8e8e8" stroke-width="1"/>
  <line x1="18.0" y1="171.0" x2="222.0" y2="171.0" stroke="#888"/>
  <text x="216.0" y="167.0" font-size="10" fill="#888">x</text>
  <line x1="86.0" y1="18.0" x2="86.0" y2="222.0" stroke="#888"/>
  <text x="90.0" y="26.0" font-size="10" fill="#888">y</text>
  <line x1="18.0" y1="196.5" x2="222.0" y2="43.5" stroke="#2980b9" stroke-width="2.5"/>
  <circle cx="86.0" cy="145.5" r="3.5" fill="#c0392b"/>
  <text x="91.0" y="139.5" font-size="10" fill="#c0392b">(0,1)</text>
  <circle cx="154.0" cy="94.5" r="3.5" fill="#c0392b"/>
  <text x="159.0" y="88.5" font-size="10" fill="#c0392b">(3,3)</text>
  <text x="144.4" y="100.7" font-size="10" fill="#2980b9">slope 2/3</text>
</svg>
