<svg viewBox="0 0 240 240" xmlns="http://www.w3.org/2000/svg" font-family="sans-serif">
  <line x1="18.0" y1="18.0" x2="18.0" y2="222.0" stroke="#e8e8e8" stroke-width="1"/>
  <line x1="99.6" y1="18.0" x2="99.6" y2="222.0" stroke="#e8e8e8" stroke-width="1"/>
  <line x1="140.4" y1="18.0" x2="140.4" y2="222.0" stroke="#e8e8e8" stroke-width="1"/>
  <line x1="181.2" y1="18.0" x2="181.2" y2="222.0" stroke="#e8e8e8" stroke-width="1"/>
  <line x1="222.0" y1="18.0" x2="222.0" y2="222.0" stroke="#e8e8e8" stroke-width="1"/>
  <line x1="18.0" y1="222.0" x2="222.0" y2="222.0" stroke="#e8e8e8" stroke-width="1"/>
  <line x1="18.0" y1="211.8" x2="222.0" y2="211.8" stroke="#e8e8e8" stroke-width="1"/>
  <line x1="18.0" y1="201.6" x2="222.0" y2="201.6" stroke="#e8e8e8" stroke-width="1"/>
  <line x1="18.0" y1="191.4" x2="222.0" y2="191.4" stroke="#e8e8e8" stroke-width="1"/>
  <line x1="18.0" y1="181.2" x2="222.0" y2="181.2" stroke="#e8e8e8" stroke-width="1"/>
  <line x1="18.0" y1="171.0" x2="222.0" y2="171.0" stroke="#e8e8e8" stroke-width="1"/>
  <line x1="18.0" y1="160.8" x2="222.0" y2="160.8" stroke="#e8e8e8" stroke-width="1"/>
  <line x1="18.0" y1="150.6" x2="222.0" y2="150.6" stroke="#e8e8e8" stroke-width="1"/>
  <line x1="18.0" y1="140.4" x2="222.0" y2="140.4" stroke="#e8e8e8" stroke-width="1"/>
  <line x1="18.0" y1="120.0" x2="222.0" y2="120.0" stroke="#e8e8e8" stroke-width="1"/>
  <line x1="18.0" y1="109.8" x2="222.0" y2="109.8" stroke="#e8e8e8" stroke-width="1"/>
  <line x1="18.0" y1="99.6" x2="222.0" y2="99.6" stroke="#e8e8e8" stroke-width="1"/>
  <line x1="18.0" y1="89.4" x2="222.0" y2="89.4" stroke="#e8e8e8" stroke-width="1"/>
  <line x1="18.0" y1="79.2" x2="222.0" y2="79.2" stroke="#e8e8e8" stroke-width="1"/>
  <line x1="18.0" y1="69.0" x2="222.0" y2="69.0" stroke="#e8e8e8" stroke-width="1"/>
  <line x1="18.0" y1="58.8" x2="222.0" y2="58.8" stroke="#e8e8e8" stroke-width="1"/>
  <line x1="18.0" y1="48.6" x2="222.0" y2="48.6" stroke="#e8e8e8" stroke-width="1"/>
  <line x1="18.0" y1="38.4" x2="222.0" y2="38.4" stroke="#e8e8e8" stroke-width="1"/>
  <line x1="18.0" y1="28.2" x2="222.0" y2="28.2" stroke="#e8e8e8" stroke-width="1"/>
  <line x1="18.0" y1="18.0" x2="222.0" y2="18.0" stroke="#e8e8e8" stroke-width="1"/>
  <line x1="18.0" y1="130.2" x2="222.0" y2="130.2" stroke="#888"/>
  <text x="216.0" y="126.19999999999999" font-size="10" fill="#888">x</text>
  <line x1="58.8" y1="18.0" x2="58.8" y2="222.0" stroke="#888"/>
  <text x="62.8" y="26.0" font-size="10" fill="#888">y</text>
  <line x1="18.0" y1="222.0" x2="222.0" y2="18.0" stroke="#2980b9" stroke-width="2.5"/>
  <circle cx="58.8" cy="181.2" r="3.5" fill="#c0392b"/>
  <text x="63.8" y="175.2" font-size="10" fill="#c0392b">(0, -5)</text>
  <circle cx="140.4" cy="99.6" r="3.5" fill="#c0392b"/>
  <text x="145.4" y="93.6" font-size="10" fill="#c0392b">(2, 3)</text>
  <text x="128.07999999999998" y="111.92" font-size="10" fill="#2980b9">y = 4x - 5 through (2, 3)</text>
</svg>
