<svg viewBox="0 0 320 60" xmlns="http://www.w3.org/2000/svg" font-family="sans-serif">
  <line x1="14" y1="30" x2="306" y2="30" stroke="#333" stroke-width="2"/>
  <line x1="20.0" y1="25" x2="20.0" y2="35" stroke="#333"/>
  <text x="20.0" y="50" font-size="10" text-anchor="middle">-4</text>
  <line x1="51.11" y1="25" x2="51.11" y2="35" stroke="#333"/>
  <text x="51.11" y="50" font-size="10" text-anchor="middle">-3</text>
  <line x1="82.22" y1="25" x2="82.22" y2="35" stroke="#333"/>
  <text x="82.22" y="50" font-size="10" text-anchor="middle">-2</text>
  <line x1="113.33" y1="25" x2="113.33" y2="35" stroke="#333"/>
  <text x="113.33" y="50" font-size="10" text-anchor="middle">-1</text>
  <line x1="144.44" y1="25" x2="144.44" y2="35" stroke="#333"/>
  <text x="144.44" y="50" font-size="10" text-anchor="middle">0</text>
  <line x1="175.56" y1="25" x2="175.56" y2="35" stroke="#333"/>
  <text x="175.56" y="50" font-size="10" text-anchor="middle">1</text>
  <line x1="206.67" y1="25" x2="206.67" y2="35" stroke="#333"/>
  <text x="206.67" y="50" font-size="10" text-anchor="middle">2</text>
  <line x1="237.78" y1="25" x2="237.78" y2="35" stroke="#333"/>
  <text x="237.78" y="50" font-size="10" text-anchor="middle">3</text>
  <line x1="268.89" y1="25" x2="268.89" y2="35" stroke="#333"/>
  <text x="268.89" y="50" font-size="10" text-anchor="middle">4</text>
  <line x1="300.0" y1="25" x2="300.0" y2="35" stroke="#333"/>
  <text x="300.0" y="50" font-size="10" text-anchor="middle">5</text>
  <line x1="113.33" y1="30" x2="237.78" y2="30" stroke="#c0392b" stroke-width="4"/>
  <circle cx="113.33" cy="30" r="5" fill="#c0392b" stroke="#c0392b" stroke-width="2"/>
  <text x="113.33" y="18" font-size="10" text-anchor="middle" fill="#c0392b">-1</text>
  <circle cx="237.78" cy="30" r="5" fill="white" stroke="#c0392b" stroke-width="2"/>
  <text x="237.78" y="18" font-size="10" text-anchor="middle" fill="#c0392b">3</text>
</svg>
