<svg viewBox="0 0 240 240" xmlns="http://www.w3.org/2000/svg" font-family="sans-serif">
  <polygon points="18.0,196.5 222.0,43.5 222.0,18.0 18.0,18.0" fill="#2980b9" fill-opacity="0.15"/>
  <line x1="18.0" y1="18.0" x2="18.0" y2="222.0" stroke="#e8e8e8" stroke-width="1"/>
  <line x1="52.0" y1="18.0" x2="52.0" y2="222.0" stroke="#e8e8e8" stroke-width="1"/>
  <line x1="86.0" y1="18.0" x2="86.0" y2="222.0" stroke="#e8e8e8" stroke-width="1"/>
  <line x1="154.0" y1="18.0" x2="154.0" y2="222.0" stroke="#e8e8e8" stroke-width="1"/>
  <line x1="188.0" y1="18.0" x2="188.0" y2="222.0" stroke="#e8e8e8" stroke-width="1"/>
  <line x1="222.0" y1="18.0" x2="222.0" y2="222.0" stroke="#e8e8e8" stroke-width="1"/>
  <line x1="18.0" y1="222.0" x2="222.0" y2="222.0" stroke="#e8e8e8" stroke-width="1"/>
  <line x1="18.0" y1="196.5" x2="222.0" y2="196.5" stroke="#e8e8e8" stroke-width="1"/>
  <line x1="18.0" y1="171.0" x2="222.0" y2="171.0" stroke="#e8e8e8" stroke-width="1"/>
  <line x1="18.0" y1="120.0" x2="222.0" y2="120.0" stroke="#e8e8e8" stroke-width="1"/>
  <line x1="18.0" y1="94.5" x2="222.0" y2="94.5" stroke="#e8e8e8" stroke-width="1"/>
  <line x1="18.0" y1="69.0" x2="222.0" y2="69.0" stroke="#e8e8e8" stroke-width="1"/>
  <line x1="18.0" y1="43.5" x2="222.0" y2="43.5" stroke="#e8e8e8" stroke-width="1"/>
  <line x1="18.0" y1="18.0" x2="222.0" y2="18.0" stroke="#e8e8e8" stroke-width="1"/>
  <line x1="18.0" y1="145.5" x2="222.0" y2="145.5" stroke="#888"/>
  <text x="216.0" y="141.5" font-size="10" fill="#888">x</text>
  <line x1="120.0" y1="18.0" x2="120.0" y2="222.0" stroke="#888"/>
  <text x="124.0" y="26.0" font-size="10" fill="#888">y</text>
  <line x1="18.0" y1="196.5" x2="222.0" y2="43.5" stroke="#2980b9" stroke-width="2.5" stroke-dasharray="5 3"/>
  <circle cx="120.0" cy="69.0" r="3.5" fill="#27ae60"/>
  <text x="125.0" y="63.0" font-size="10" fill="#27ae60">test (0, 3)</text>
</svg>
