<svg viewBox="0 0 240 240" xmlns="http://www.w3.org/2000/svg" font-family="sans-serif">
  <line x1="69.0" y1="18.0" x2="69.0" y2="222.0" stroke="#e8e8e8" stroke-width="1"/>
  <line x1="120.0" y1="18.0" x2="120.0" y2="222.0" stroke="#e8e8e8" stroke-width="1"/>
  <line x1="171.0" y1="18.0" x2="171.0" y2="222.0" stroke="#e8e8e8" stroke-width="1"/>
  <line x1="222.0" y1="18.0" x2="222.0" y2="222.0" stroke="#e8e8e8" stroke-width="1"/>
  <line x1="18.0" y1="209.25" x2="222.0" y2="209.25" stroke="#e8e8e8" stroke-width="1"/>
  <line x1="18.0" y1="196.5" x2="222.0" y2="196.5" stroke="#e8e8e8" stroke-width="1"/>
  <line x1="18.0" y1="183.75" x2="222.0" y2="183.75" stroke="#e8e8e8" stroke-width="1"/>
  <line x1="18.0" y1="171.0" x2="222.0" y2="171.0" stroke="#e8e8e8" stroke-width="1"/>
  <line x1="18.0" y1="158.25" x2="222.0" y2="158.25" stroke="#e8e8e8" stroke-width="1"/>
  <line x1="18.0" y1="145.5" x2="222.0" y2="145.5" stroke="#e8e8e8" stroke-width="1"/>
  <line x1="18.0" y1="132.75" x2="222.0" y2="132.75" stroke="#e8e8e8" stroke-width="1"/>
  <line x1="18.0" y1="120.0" x2="222.0" y2="120.0" stroke="#e8e8e8" stroke-width="1"/>
  <line x1="18.0" y1="107.25" x2="222.0" y2="107.25" stroke="#e8e8e8" stroke-width="1"/>
  <line x1="18.0" y1="94.5" x2="222.0" y2="94.5" stroke="#e8e8e8" stroke-width="1"/>
  <line x1="18.0" y1="81.75" x2="222.0" y2="81.75" stroke="#e8e8e8" stroke-width="1"/>
  <line x1="18.0" y1="69.0" x2="222.0" y2="69.0" stroke="#e8e8e8" stroke-width="1"/>
  <line x1="18.0" y1="56.25" x2="222.0" y2="56.25" stroke="#e8e8e8" stroke-width="1"/>
  <line x1="18.0" y1="43.5" x2="222.0" y2="43.5" stroke="#e8e8e8" stroke-width="1"/>
  <line x1="18.0" y1="30.75" x2="222.0" y2="30.75" stroke="#e8e8e8" stroke-width="1"/>
  <line x1="18.0" y1="18.0" x2="222.0" y2="18.0" stroke="#e8e8e8" stroke-width="1"/>
  <line x1="18.0" y1="222.0" x2="222.0" y2="222.0" stroke="#888"/>
  <text x="216.0" y="218.0" font-size="10" fill="#888">x</text>
  <line x1="18.0" y1="18.0" x2="18.0" y2="222.0" stroke="#888"/>
  <text x="22.0" y="26.0" font-size="10" fill="#888">y</text>
  <line x1="18.0" y1="222.0" x2="222.0" y2="120.0" stroke="#2980b9" stroke-width="2.5"/>
  <polyline fill="none" stroke="#8e44ad" stroke-width="2.5" points="18.0,209.25 20.55,208.8 23.1,208.33 25.65,207.85 28.2,207.35 30.75,206.84 33.3,206.3 35.85,205.75 38.4,205.18 40.95,204.58 43.5,203.97 46.05,203.33 48.6,202.67 51.15,201.99 53.7,201.29 56.25,200.56 58.8,199.8 61.35,199.02 63.9,198.21 66.45,197.37 69.0,196.5 71.55,195.6 74.1,194.67 76.65,193.71 79.2,192.71 81.75,191.68 84.3,190.61 86.85,189.5 89.4,188.35 91.95,187.17 94.5,185.94 97.05,184.67 99.6,183.35 102.15,181.99 104.7,180.58 107.25,179.11 109.8,177.6 112.35,176.04 114.9,174.42 117.45,172.74 120.0,171.0 122.55,169.2 125.1,167.34 127.65,165.41 130.2,163.42 132.75,161.35 135.3,159.21 137.85,157.0 140.4,154.71 142.95,152.33 145.5,149.88 148.05,147.33 150.6,144.7 153.15,141.97 155.7,139.15 158.25,136.23 160.8,133.2 163.35,130.07 165.9,126.83 168.45,123.47 171.0,120.0 173.55,116.4 176.1,112.68 178.65,108.82 181.2,104.83 183.75,100.7 186.3,96.42 188.85,91.99 191.4,87.41 193.95,82.66 196.5,77.75 199.05,72.66 201.6,67.4 204.15,61.94 206.7,56.3 209.25,50.46 211.8,44.41 214.35,38.14 216.9,31.66 219.45,24.95 222.0,18.0"/>
  <circle cx="69.0" cy="196.5" r="3.5" fill="#c0392b"/>
  <text x="74.0" y="190.5" font-size="10" fill="#c0392b">(1, 2)</text>
  <circle cx="171.0" cy="120.0" r="3.5" fill="#c0392b"/>
  <text x="176.0" y="114.0" font-size="10" fill="#c0392b">(3, 8)</text>
</svg>
